<svg width="100" height="100" viewBox="0 0 100 100" fill="none" xmlns="http://www.w3.org/2000/svg">
<circle cx="50" cy="50" r="50" fill="#EFC405"/>
<path d="M28 70.0303V65.6008C28 65.6008 39 61.1714 50 61.1714C61 61.1714 72 65.6008 72 65.6008V70.0303H28ZM48.46 41.4604C45.82 32.823 32.4 34.8162 32.4 34.8162C32.4 34.8162 32.84 52.091 45.38 49.4334C44.5 43.0107 41.2 41.2389 41.2 41.2389C47.36 41.2389 47.8 48.769 47.8 48.769V58.9567H52.2V49.6548C52.2 49.6548 52.2 41.0174 58.8 38.8027C58.8 38.8027 54.4 45.4469 54.4 49.8763C69.8 51.4266 69.8 30.1653 69.8 30.1653C69.8 30.1653 50.22 27.9506 48.46 41.4604Z" fill="#333333"/>
</svg>
