<svg width="100" height="100" viewBox="0 0 100 100" fill="none" xmlns="http://www.w3.org/2000/svg">
<circle cx="50" cy="50" r="50" fill="#EFC405"/>
<g clip-path="url(#clip0_283_996)">
<path d="M23 63.5V59.9562C23 58.3437 23.825 57.0312 25.475 56.0187C27.125 55.0062 29.3 54.5 32 54.5C32.4875 54.5 32.9562 54.5094 33.4062 54.5281C33.8562 54.5469 34.2875 54.5937 34.7 54.6687C34.175 55.4562 33.7812 56.2812 33.5187 57.1437C33.2562 58.0062 33.125 58.9062 33.125 59.8437V63.5H23ZM36.5 63.5V59.8437C36.5 58.6437 36.8281 57.5469 37.4844 56.5531C38.1406 55.5594 39.0687 54.6875 40.2687 53.9375C41.4687 53.1875 42.9031 52.625 44.5719 52.25C46.2406 51.875 48.05 51.6875 50 51.6875C51.9875 51.6875 53.8156 51.875 55.4844 52.25C57.1531 52.625 58.5875 53.1875 59.7875 53.9375C60.9875 54.6875 61.9062 55.5594 62.5437 56.5531C63.1812 57.5469 63.5 58.6437 63.5 59.8437V63.5H36.5ZM66.875 63.5V59.8437C66.875 58.8687 66.7531 57.95 66.5094 57.0875C66.2656 56.225 65.9 55.4187 65.4125 54.6687C65.825 54.5937 66.2469 54.5469 66.6781 54.5281C67.1094 54.5094 67.55 54.5 68 54.5C70.7 54.5 72.875 54.9969 74.525 55.9906C76.175 56.9844 77 58.3062 77 59.9562V63.5H66.875ZM41.2812 59H58.775C58.4 58.25 57.3594 57.5937 55.6531 57.0312C53.9469 56.4687 52.0625 56.1875 50 56.1875C47.9375 56.1875 46.0531 56.4687 44.3469 57.0312C42.6406 57.5937 41.6187 58.25 41.2812 59ZM32 52.25C30.7625 52.25 29.7031 51.8094 28.8219 50.9281C27.9406 50.0469 27.5 48.9875 27.5 47.75C27.5 46.475 27.9406 45.4062 28.8219 44.5437C29.7031 43.6812 30.7625 43.25 32 43.25C33.275 43.25 34.3437 43.6812 35.2062 44.5437C36.0687 45.4062 36.5 46.475 36.5 47.75C36.5 48.9875 36.0687 50.0469 35.2062 50.9281C34.3437 51.8094 33.275 52.25 32 52.25ZM68 52.25C66.7625 52.25 65.7031 51.8094 64.8219 50.9281C63.9406 50.0469 63.5 48.9875 63.5 47.75C63.5 46.475 63.9406 45.4062 64.8219 44.5437C65.7031 43.6812 66.7625 43.25 68 43.25C69.275 43.25 70.3437 43.6812 71.2062 44.5437C72.0687 45.4062 72.5 46.475 72.5 47.75C72.5 48.9875 72.0687 50.0469 71.2062 50.9281C70.3437 51.8094 69.275 52.25 68 52.25ZM50 50C48.125 50 46.5312 49.3437 45.2187 48.0312C43.9062 46.7187 43.25 45.125 43.25 43.25C43.25 41.3375 43.9062 39.7344 45.2187 38.4406C46.5312 37.1469 48.125 36.5 50 36.5C51.9125 36.5 53.5156 37.1469 54.8094 38.4406C56.1031 39.7344 56.75 41.3375 56.75 43.25C56.75 45.125 56.1031 46.7187 54.8094 48.0312C53.5156 49.3437 51.9125 50 50 50ZM50 45.5C50.6375 45.5 51.1719 45.2844 51.6031 44.8531C52.0344 44.4219 52.25 43.8875 52.25 43.25C52.25 42.6125 52.0344 42.0781 51.6031 41.6469C51.1719 41.2156 50.6375 41 50 41C49.3625 41 48.8281 41.2156 48.3969 41.6469C47.9656 42.0781 47.75 42.6125 47.75 43.25C47.75 43.8875 47.9656 44.4219 48.3969 44.8531C48.8281 45.2844 49.3625 45.5 50 45.5Z" fill="#333333"/>
</g>
<defs>
<clipPath id="clip0_283_996">
<rect width="54" height="54" fill="white" transform="translate(23 23)"/>
</clipPath>
</defs>
</svg>
