<svg width="32" height="32" viewBox="0 0 32 32" fill="none" xmlns="http://www.w3.org/2000/svg">
<path d="M21.3334 28C20.6001 28 19.9725 27.7391 19.4508 27.2173C18.929 26.6956 18.6676 26.0676 18.6668 25.3333V20C18.6668 19.2667 18.9281 18.6391 19.4508 18.1173C19.9734 17.5956 20.601 17.3342 21.3334 17.3333H26.6668C27.4001 17.3333 28.0281 17.5947 28.5508 18.1173C29.0734 18.64 29.3343 19.2676 29.3334 20V25.3333C29.3334 26.0667 29.0725 26.6947 28.5508 27.2173C28.029 27.74 27.401 28.0009 26.6668 28H21.3334ZM4.00009 24C3.62231 24 3.30586 23.872 3.05075 23.616C2.79564 23.36 2.66764 23.0436 2.66675 22.6667C2.66586 22.2898 2.79386 21.9733 3.05075 21.7173C3.30764 21.4613 3.62409 21.3333 4.00009 21.3333H13.3334C13.7112 21.3333 14.0281 21.4613 14.2841 21.7173C14.5401 21.9733 14.6676 22.2898 14.6668 22.6667C14.6659 23.0436 14.5379 23.3604 14.2828 23.6173C14.0276 23.8742 13.7112 24.0018 13.3334 24H4.00009ZM21.3334 14.6667C20.6001 14.6667 19.9725 14.4058 19.4508 13.884C18.929 13.3622 18.6676 12.7342 18.6668 12V6.66667C18.6668 5.93333 18.9281 5.30578 19.4508 4.784C19.9734 4.26222 20.601 4.00089 21.3334 4H26.6668C27.4001 4 28.0281 4.26133 28.5508 4.784C29.0734 5.30667 29.3343 5.93422 29.3334 6.66667V12C29.3334 12.7333 29.0725 13.3613 28.5508 13.884C28.029 14.4067 27.401 14.6676 26.6668 14.6667H21.3334ZM4.00009 10.6667C3.62231 10.6667 3.30586 10.5387 3.05075 10.2827C2.79564 10.0267 2.66764 9.71022 2.66675 9.33333C2.66586 8.95644 2.79386 8.64 3.05075 8.384C3.30764 8.128 3.62409 8 4.00009 8H13.3334C13.7112 8 14.0281 8.128 14.2841 8.384C14.5401 8.64 14.6676 8.95644 14.6668 9.33333C14.6659 9.71022 14.5379 10.0271 14.2828 10.284C14.0276 10.5409 13.7112 10.6684 13.3334 10.6667H4.00009Z" fill="#666666"/>
</svg>
