<svg width="32" height="32" viewBox="0 0 32 32" fill="none" xmlns="http://www.w3.org/2000/svg">
<path d="M15.7332 26.7001C14.9999 26.7001 14.3721 26.4334 13.8499 25.9001C13.3277 25.3667 13.0666 24.7334 13.0666 24.0001C13.0666 23.2667 13.3277 22.639 13.8499 22.1167C14.3721 21.5945 14.9999 21.3334 15.7332 21.3334L16.5332 20.5667C16.711 20.389 16.9166 20.2501 17.1499 20.1501C17.3832 20.0501 17.6221 20.0001 17.8666 20.0001C18.3777 20.0001 18.8166 20.189 19.1832 20.5667C19.5499 20.9445 19.7332 21.389 19.7332 21.9001V22.4667C19.7332 22.9112 19.8777 23.2779 20.1666 23.5667C20.4555 23.8556 20.8221 24.0001 21.2666 24.0001C21.5999 24.0001 21.8999 23.9001 22.1666 23.7001C22.4332 23.5001 22.6221 23.2445 22.7332 22.9334L23.1332 21.8334C23.3332 21.3001 23.6555 20.8612 24.0999 20.5167C24.5443 20.1723 25.0555 20.0001 25.6332 20.0001C25.8777 19.3779 26.0721 18.7334 26.2166 18.0667C26.361 17.4001 26.4332 16.7112 26.4332 16.0001C26.4332 14.0223 25.9388 12.2167 24.9499 10.5834C23.961 8.95008 22.6666 7.66675 21.0666 6.73341V8.00008C21.0666 8.73341 20.8055 9.36119 20.2832 9.88341C19.761 10.4056 19.1332 10.6667 18.3999 10.6667H17.0666V13.3334C17.0666 13.7112 16.9388 14.0279 16.6832 14.2834C16.4277 14.539 16.111 14.6667 15.7332 14.6667H14.3999V16.9334C14.3999 17.4223 14.2332 17.8334 13.8999 18.1667C13.5666 18.5001 13.1555 18.6667 12.6666 18.6667C12.3555 18.6667 12.0721 18.6001 11.8166 18.4667C11.561 18.3334 11.3555 18.1445 11.1999 17.9001L9.06657 14.6667H7.73324V16.0001C7.73324 16.689 7.4999 17.2779 7.03324 17.7667C6.56657 18.2556 6.01101 18.5445 5.36657 18.6334C5.94435 20.9445 7.19435 22.8667 9.11657 24.4001C11.0388 25.9334 13.2443 26.7001 15.7332 26.7001ZM18.3999 18.6667C18.0221 18.6667 17.7055 18.539 17.4499 18.2834C17.1943 18.0279 17.0666 17.7112 17.0666 17.3334C17.0666 16.9556 17.1943 16.639 17.4499 16.3834C17.7055 16.1279 18.0221 16.0001 18.3999 16.0001H19.7332C20.111 16.0001 20.4277 16.1279 20.6832 16.3834C20.9388 16.639 21.0666 16.9556 21.0666 17.3334C21.0666 17.7112 20.9388 18.0279 20.6832 18.2834C20.4277 18.539 20.111 18.6667 19.7332 18.6667H18.3999ZM21.4999 14.6667C21.0555 14.6667 20.7055 14.4945 20.4499 14.1501C20.1943 13.8056 20.1332 13.4223 20.2666 13.0001L20.7666 11.5334C20.8555 11.2667 21.011 11.0556 21.2332 10.9001C21.4555 10.7445 21.6999 10.6667 21.9666 10.6667C22.411 10.6667 22.761 10.839 23.0166 11.1834C23.2721 11.5279 23.3332 11.9112 23.1999 12.3334L22.6999 13.8001C22.611 14.0667 22.4555 14.2779 22.2332 14.4334C22.011 14.589 21.7666 14.6667 21.4999 14.6667ZM15.7332 29.3334C13.8888 29.3334 12.1555 28.9834 10.5332 28.2834C8.91101 27.5834 7.4999 26.6334 6.2999 25.4334C5.0999 24.2334 4.1499 22.8223 3.4499 21.2001C2.7499 19.5779 2.3999 17.8445 2.3999 16.0001C2.3999 14.1556 2.7499 12.4223 3.4499 10.8001C4.1499 9.17786 5.0999 7.76675 6.2999 6.56675C7.4999 5.36675 8.91101 4.41675 10.5332 3.71675C12.1555 3.01675 13.8888 2.66675 15.7332 2.66675C17.5777 2.66675 19.311 3.01675 20.9332 3.71675C22.5555 4.41675 23.9666 5.36675 25.1666 6.56675C26.3666 7.76675 27.3166 9.17786 28.0166 10.8001C28.7166 12.4223 29.0666 14.1556 29.0666 16.0001C29.0666 17.8445 28.7166 19.5779 28.0166 21.2001C27.3166 22.8223 26.3666 24.2334 25.1666 25.4334C23.9666 26.6334 22.5555 27.5834 20.9332 28.2834C19.311 28.9834 17.5777 29.3334 15.7332 29.3334Z" fill="#E3E3E3"/>
</svg>
