<svg width="223" height="258" viewBox="0 0 223 258" fill="none" xmlns="http://www.w3.org/2000/svg">
<rect y="44" width="161" height="161" fill="#02965B"/>
<path d="M161 44V205H87L116.5 44H161Z" fill="#A2C73D"/>
<path fill-rule="evenodd" clip-rule="evenodd" d="M208.333 0.889648L222.262 235.945L72.8385 257.962L112.786 37.4734L208.333 0.889648ZM121.621 44.7983L85.1616 246.038L211.738 227.388L199.158 15.1105L121.621 44.7983Z" fill="black"/>
<path d="M45.6656 80C50.8732 80 56.4222 81.4143 62.3127 84.2429C68.2032 86.9857 73.368 92.0429 77.8072 99.4143C82.2465 106.786 84.4661 116.814 84.4661 129.5C84.4661 141.071 81.6916 149.857 76.1425 155.857C70.6789 161.771 64.9164 165.586 58.8552 167.3C52.794 168.929 47.7572 169.743 43.7448 169.743L33.2443 169.871C31.3662 169.957 29.0612 170 26.3294 170C24.7074 170 23.8964 168.543 23.8964 165.629L24.0244 162.286L23.7683 155.857L23.6403 150.071L23.5122 146.214C23.1707 141.757 23 136.7 23 131.043C23 127.7 23.1707 123.286 23.5122 117.8C23.8537 112.314 24.0244 107.814 24.0244 104.3L23.8964 87.0714C23.811 85.7 23.7683 84.1571 23.7683 82.4429C23.7683 81.5 24.3659 80.9429 25.5611 80.7714C26.8416 80.5143 28.1649 80.4286 29.5308 80.5143C30.8967 80.5143 31.8357 80.5143 32.348 80.5143L36.9579 80.2571C40.5434 80.0857 43.446 80 45.6656 80ZM45.9217 142.486C48.2267 141.371 50.3609 139.829 52.3244 137.857C56.5929 133.743 58.7271 128.857 58.7271 123.2C58.7271 117.8 56.6783 113.471 52.5805 110.214C50.7878 108.843 48.7816 107.814 46.562 107.129C46.7327 109.014 46.8181 110.471 46.8181 111.5C46.8181 113.129 46.7327 115.486 46.562 118.571C46.3913 121.486 46.3059 123.629 46.3059 125C46.3059 127.229 46.2205 130.829 46.0498 135.8C45.9644 137.257 45.9217 139.486 45.9217 142.486Z" fill="#FFFCFC"/>
<path d="M104.205 81.0286C106.084 81.0286 109.071 80.9429 113.169 80.7714L120.084 80.5143L134.042 80.6429L140.445 80.7714C141.725 80.8571 143.475 80.9 145.695 80.9C146.634 80.9 147.232 81.0286 147.488 81.2857C147.829 81.5429 148 81.9714 148 82.5714L147.872 84.7571L148 99.8V107.257C148 107.943 147.872 108.414 147.616 108.671C147.445 108.843 146.933 108.929 146.079 108.929C144.713 108.929 142.792 108.8 140.317 108.543C139.036 108.457 137.756 108.371 136.475 108.286C135.195 108.2 134.085 108.157 133.146 108.157H119.572C118.035 108.157 116.243 108.243 114.194 108.414L111.505 108.671C111.419 109.186 111.376 109.957 111.376 110.986V115.229C111.376 116.257 111.291 117.457 111.12 118.829L110.864 120.5H113.681L118.804 120.371H128.024C130.158 120.371 132.676 120.286 135.579 120.114C137.798 119.943 139.25 119.857 139.933 119.857C140.957 119.857 141.64 119.986 141.981 120.243C142.323 120.5 142.494 120.886 142.494 121.4C142.494 122.514 142.28 123.757 141.853 125.129C141.768 125.729 141.597 126.114 141.341 126.286C141.085 126.457 140.658 126.543 140.061 126.543L134.938 126.414L123.029 126.157H116.243C114.108 126.157 112.444 126.2 111.248 126.286V138.757C111.248 144.929 111.12 149.943 110.864 153.8C110.694 156.029 110.608 158.214 110.608 160.357L110.736 167.943C110.736 168.886 110.523 169.443 110.096 169.614C109.669 169.786 108.901 169.871 107.791 169.871H98.9552C98.1869 169.786 97.7173 169.529 97.5466 169.1C97.3759 168.671 97.2905 168.071 97.2905 167.3C97.2905 166.529 97.2905 165.886 97.2905 165.371C97.1198 164 97.0344 161.986 97.0344 159.329L97.1624 148.529L97.4185 135.029L97.6747 126.8L97.5466 123.071C97.2905 121.1 97.1624 118.571 97.1624 115.486C97.1624 113.514 97.2478 111.243 97.4185 108.671L97.5466 104.171V92.6C97.5466 91.7429 97.632 90.2 97.8027 87.9714L98.0588 83.3429V82.8286C98.0588 81.9714 98.1869 81.4143 98.443 81.1571C98.7845 80.9 99.254 80.7714 99.8516 80.7714C100.449 80.7714 101.089 80.8143 101.772 80.9C102.541 80.9857 103.352 81.0286 104.205 81.0286Z" fill="#FFFCFC"/>
</svg>
